<?xml version="1.0" encoding="utf-8"?><svg xmlns="http://www.w3.org/2000/svg" viewBox="0 0 24 24"><path d="M12 5.864c3.055 0 5.455 2.4 5.455 5.455 0 .655-.109 1.418-.436 1.964l3.164 3.164c1.636-1.418 2.945-3.164 3.709-5.127-1.855-4.8-6.545-8.182-12-8.182-1.527 0-2.945.327-4.364.764l2.4 2.4c.655-.327 1.418-.436 2.073-.436zM1.091 2.918l2.945 2.945C2.181 7.281.763 9.136 0 11.318c1.855 4.8 6.545 8.182 12 8.182 1.636 0 3.273-.327 4.8-.873l3.6 3.6 1.418-1.418L2.509 1.5 1.091 2.918zm6 6l1.636 1.636v.764c0 1.855 1.418 3.273 3.273 3.273.218 0 .436 0 .764-.109l1.636 1.636c-.764.436-1.527.655-2.4.655-3.055 0-5.455-2.4-5.455-5.455 0-.873.218-1.636.545-2.4zm4.691-.873l3.382 3.382v-.218c0-1.855-1.418-3.273-3.273-3.273 0 .109 0 .109-.109.109z" fill="#CCCCCC" /></svg>